Coordinates
version=1
nRows=21
nColumns=12
inDegrees=yes

Units are S.I. units (second, meters, Newtons, ...)
Angles are in degrees

endheader
time	SC_y	SC_z	SC_x	AC_y	AC_z	AC_x	GH_y	GH_z	GH_yy	EL_x	PS_y
       0.0              -56.14          3.516         0.8697          60.31         -6.907         -16.01          38.86          37.92         -17.05          89.51          150.0
  0.004878              -56.14          3.514         0.8795          60.31         -6.907         -16.01          38.88          37.92         -17.07          89.51          150.0
  0.009756              -56.14          3.513           0.89          60.31         -6.907         -16.01           38.9          37.91          -17.1          89.51          150.0
   0.01463              -56.14          3.512         0.9012          60.31         -6.908          -16.0          38.92          37.91         -17.12          89.51          150.0
   0.01951              -56.14           3.51          0.913          60.31         -6.908          -16.0          38.94           37.9         -17.14          89.51          150.0
   0.02439              -56.14          3.509         0.9256          60.31         -6.908         -15.99          38.96           37.9         -17.17          89.51          150.0
   0.02927              -56.14          3.507         0.9391          60.31         -6.908         -15.99          38.98          37.89          -17.2          89.51          150.0
   0.03415              -56.14          3.505         0.9536          60.31         -6.909         -15.98          39.01          37.88         -17.23          89.51          150.0
   0.03902              -56.14          3.503          0.969          60.31         -6.909         -15.97          39.03          37.87         -17.26          89.51          150.0
    0.0439              -56.14          3.501         0.9856          60.31         -6.909         -15.97          39.06          37.87          -17.3          89.51          150.0
   0.04878              -56.14          3.499          1.003          60.31         -6.909         -15.96          39.09          37.86         -17.33          89.51          150.0
   0.05366              -56.14          3.496          1.023          60.31          -6.91         -15.95          39.13          37.85         -17.37          89.51          150.0
   0.05853              -56.14          3.494          1.043          60.32          -6.91         -15.94          39.16          37.84         -17.42          89.51          150.0
   0.06341              -56.14          3.491          1.066          60.32         -6.911         -15.93           39.2          37.83         -17.46          89.51          150.0
   0.06829              -56.14          3.488           1.09          60.32         -6.911         -15.92          39.24          37.81         -17.51          89.51          150.0
   0.07317              -56.14          3.485          1.116          60.32         -6.912         -15.91          39.29           37.8         -17.57          89.51          149.9
   0.07805              -56.14          3.481          1.144          60.32         -6.912          -15.9          39.33          37.79         -17.63          89.51          149.9
   0.08292              -56.14          3.477          1.175          60.32         -6.913         -15.89          39.39          37.77         -17.69          89.51          149.9
    0.0878              -56.14          3.473          1.209          60.32         -6.913         -15.87          39.45          37.75         -17.76          89.51          149.9
   0.09268              -56.14          3.469          1.246          60.32         -6.914         -15.86          39.51          37.74         -17.84          89.51          149.9
   0.09756              -56.14          3.463          1.287          60.32         -6.915         -15.84          39.58          37.72         -17.92          89.51          149.9
